<?xml version="1.0" encoding="utf-8"?>
<!-- Generator: Adobe Illustrator 19.0.0, SVG Export Plug-In . SVG Version: 6.00 Build 0)  -->
<svg version="1.1" id="Layer_1" xmlns="http://www.w3.org/2000/svg" xmlns:xlink="http://www.w3.org/1999/xlink" x="0px" y="0px"
	 viewBox="-18 82 261.3 37" style="enable-background:new -18 82 261.3 37;" xml:space="preserve">
<style type="text/css">
	.st0{fill:none;stroke:#000000;stroke-width:2;stroke-miterlimit:10;}
	.st1{font-family:'Aileron-Thin';}
	.st2{font-size:32.7779px;}
	.st3{font-family:'Aileron-SemiBold';}
</style>
<g id="XMLID_16_">
	<path class="st0" d="M1.7,111.6c-1.1,0-2.9,0-4,0l-12-0.1c-1.1,0-1.5-0.8-1-1.7l6.1-10.4c0.6-0.9,1.5-2.5,2-3.5l6-10.3
		c0.6-0.9,1.5-0.9,2,0L6.7,96c0.5,1,1.4,2.5,2,3.5l5.9,10.3c0.5,1,0.1,1.7-1,1.7L1.7,111.6z"/>
</g>
<text transform="matrix(0.9789 0 0 1 21.6582 111.7041)" class="st1 st2">summit</text>
<text transform="matrix(0.9789 0 0 1 121.2202 111.7031)" class="st3 st2">Training</text>
<line class="st0" x1="11" y1="111.7" x2="-2.4" y2="87.9"/>
</svg>
