<?xml version="1.0" encoding="utf-8"?>
<!-- Generator: Adobe Illustrator 19.0.0, SVG Export Plug-In . SVG Version: 6.00 Build 0)  -->
<svg version="1.1" id="Layer_1" xmlns="http://www.w3.org/2000/svg" xmlns:xlink="http://www.w3.org/1999/xlink" x="0px" y="0px"
	 viewBox="-18 82 261.3 37" style="enable-background:new -18 82 261.3 37;" xml:space="preserve">
<style type="text/css">
	.st0{fill:none;stroke:#000000;stroke-width:2;stroke-miterlimit:10;}
	.st1{enable-background:new    ;}
</style>
<g id="XMLID_16_">
	<path class="st0" d="M1.6,110.3c-1.1,0-2.9,0-4,0l-12-0.1c-1.1,0-1.5-0.8-1-1.7l6.1-10.4c0.6-0.9,1.5-2.5,2-3.5l6-10.3
		c0.6-0.9,1.5-0.9,2,0l5.9,10.4c0.5,1,1.4,2.5,2,3.5l5.9,10.3c0.5,1,0.1,1.7-1,1.7L1.6,110.3z"/>
</g>
<g class="st1">
	<path d="M34.4,97.9h-1.3c-0.6-2.8-2.1-4.2-4.7-4.2c-2.2,0-4.1,1.3-4.1,3.6s1.8,3.1,4.4,3.8c3.9,0.9,5.8,2.2,5.8,5.1
		s-2.5,4.6-5.8,4.6c-3.2,0-5.9-1.6-6.4-5.6h1.3c0.5,3.3,2.6,4.5,5.2,4.5c2.4,0,4.5-1.2,4.5-3.5c0-2.2-1.3-3.2-5.1-4.1
		c-2.8-0.7-5.1-1.8-5.1-4.8c0-2.8,2.2-4.8,5.4-4.8C32.2,92.7,34,94.9,34.4,97.9z"/>
	<path d="M50.8,110.4h-1.2v-3.7l-0.8,1.8c-1.3,1.6-3.1,2.4-5.1,2.4c-3.4,0-5.5-2-5.9-5.1c-0.1-0.9-0.1-1.5-0.1-2.9v-9.8h1.2v9.4
		c0,1,0,1.8,0.1,2.7c0.3,2.7,1.8,4.5,4.8,4.5s5.7-2.2,5.7-7.1V93h1.2v17.4H50.8z"/>
	<path d="M77.3,100.6v9.8h-1.2v-9.3c0-1.3,0-2.1-0.1-3c-0.3-2.7-1.6-4.4-4.1-4.4c-2.7,0-4.8,2.1-4.8,7.1v9.6h-1.2v-9.3
		c0-1.3,0-2.1-0.1-3c-0.3-2.7-1.6-4.4-4.2-4.4s-4.8,2.1-4.8,7.1v9.6h-1.2V93.1h1.2v3.4l0.8-1.9c1.1-1.3,2.6-1.9,4.3-1.9
		c2.7,0,4.4,1.5,4.9,4.2l1.1-2.2c1.1-1.3,2.5-1.9,4.2-1.9c3,0,4.7,1.9,5.1,5C77.3,98.6,77.3,99.2,77.3,100.6z"/>
	<path d="M103.6,100.6v9.8h-1.2v-9.3c0-1.3,0-2.1-0.1-3c-0.3-2.7-1.6-4.4-4.1-4.4c-2.7,0-4.8,2.1-4.8,7.1v9.6h-1.3v-9.3
		c0-1.3,0-2.1-0.1-3c-0.3-2.7-1.6-4.4-4.2-4.4s-4.8,2.1-4.8,7.1v9.6h-1.2V93.1H83v3.4l0.8-1.9c1.1-1.3,2.6-1.9,4.3-1.9
		c2.7,0,4.4,1.5,4.9,4.2l1.1-2.2c1.1-1.3,2.5-1.9,4.2-1.9c3,0,4.7,1.9,5.1,5C103.6,98.6,103.6,99.2,103.6,100.6z"/>
	<path d="M109.7,89.5c0,0.5-0.4,1-0.9,1s-0.9-0.4-0.9-1s0.4-1,0.9-1C109.3,88.6,109.7,89,109.7,89.5z M108.1,110.4V93.1h1.2v17.3
		H108.1z"/>
	<path d="M119.1,109.6v1c-0.5,0.1-1.2,0.1-1.8,0.1c-1.7,0-2.5-0.8-2.7-2.4c-0.1-0.7-0.1-1.3-0.1-2.3V94.3h-2.1v-1h2.1v-3.7h1.2v3.7
		h3.3v1h-3.3V106c0,0.9,0,1.3,0,1.7C116,109.4,116.7,109.9,119.1,109.6z"/>
</g>
<g class="st1">
	<path d="M133.3,90.7v19.8h-3.5V90.7h-7.7v-2.9h19v2.9H133.3z"/>
	<path d="M150.2,92.8v2.8c-3.2-0.2-5.3,1.5-5.3,5.8v9h-3.5V93h3.5v2.9l1.4-2.4c0.8-0.6,1.8-1,2.6-1
		C149.5,92.6,149.9,92.7,150.2,92.8z"/>
	<path d="M162.2,107.9l-0.9,1.9c-1.2,0.8-2.6,1.1-4.2,1.1c-3,0-5.5-1.8-5.5-5c0-3.9,3-6,9.5-6h1.1v-0.4c0-0.7,0-1.2-0.1-1.9
		c-0.1-1.4-1-2.4-3-2.4c-2.1,0-3.1,1.2-3.3,3.3h-3.5c0.2-3.8,3-6,6.9-6c4.4,0,6.1,1.9,6.4,4.9c0.1,0.7,0.1,1.6,0.1,2.5v6.1
		c0,1.3,0.1,2.5,0.3,4.4h-3.5L162.2,107.9z M162.2,103.9v-1.6c-4.1-0.3-6.8,0.6-6.8,3.3c0,1.8,1.2,2.7,3,2.7
		C160.6,108.3,162.2,106.7,162.2,103.9z"/>
	<path d="M174.1,89c0,1.2-0.9,2.1-2.1,2.1s-2.1-0.9-2.1-2.1s0.9-2.1,2.1-2.1C173.2,87,174.1,87.8,174.1,89z M170.2,110.4V93h3.5
		v17.4H170.2z"/>
	<path d="M193.4,100.6v9.8h-3.5V101c0-0.8,0-1.6-0.1-2.5c-0.2-2-1.2-3.3-3.6-3.3c-2.4,0-4.4,2-4.4,7.4v7.8h-3.5V93h3.5v2.9l1.2-2
		c1.3-1,2.6-1.3,4.3-1.3c3.7,0,5.7,1.9,6.1,5C193.4,98.4,193.4,99.2,193.4,100.6z"/>
	<path d="M201.6,89c0,1.2-0.9,2.1-2.1,2.1s-2.1-0.9-2.1-2.1s0.9-2.1,2.1-2.1S201.6,87.8,201.6,89z M197.7,110.4V93h3.5v17.4H197.7z"
		/>
	<path d="M220.9,100.6v9.8h-3.5V101c0-0.8,0-1.6-0.1-2.5c-0.2-2-1.2-3.3-3.6-3.3c-2.4,0-4.4,2-4.4,7.4v7.8h-3.5V93h3.5v2.9l1.2-2
		c1.3-1,2.6-1.3,4.3-1.3c3.7,0,5.7,1.9,6.1,5C220.9,98.4,220.9,99.2,220.9,100.6z"/>
	<path d="M240.9,106.1c0,1.1,0,2.4,0,3.4c-0.2,5.3-3.4,7.9-8.5,7.9c-4.9,0-7.5-2.1-7.9-5.8v-0.3h3.5v0.3c0.2,1.9,1.8,3.1,4.4,3.1
		c3.1,0,4.8-1.7,5-4.8c0-0.8,0-1.4,0-2v-0.4l-1.3,1.9c-1,0.8-2.6,1.3-4.4,1.3c-4.9,0-7.8-3.7-7.8-8.8c0-6.4,3.9-9.4,8.2-9.4
		c1.4,0,3.2,0.4,4,1.1l1.1,1.7v-2.4h3.5v13.2H240.9z M237.3,101.7v-0.8c0-4.2-2.5-5.8-4.8-5.8c-2.8,0-4.9,2.1-4.9,6.4
		c0,3.8,1.7,6.5,4.7,6.5C235.1,108.1,237.3,106.4,237.3,101.7z"/>
</g>
<line class="st0" x1="10.9" y1="110.4" x2="-2.5" y2="86.6"/>
</svg>
